<?xml version="1.0" standalone="no"?>
<!DOCTYPE svg PUBLIC "-//W3C//DTD SVG 20010904//EN"
 "http://www.w3.org/TR/2001/REC-SVG-20010904/DTD/svg10.dtd">
<svg version="1.0" xmlns="http://www.w3.org/2000/svg"
 width="898.000000pt" height="905.000000pt" viewBox="0 0 898.000000 905.000000"
 preserveAspectRatio="xMidYMid meet">

<g transform="translate(0.000000,905.000000) scale(0.100000,-0.100000)"
fill="#000000" stroke="none">
<path d="M6483 8862 c-237 -354 -567 -561 -1015 -638 -51 -8 -120 -19 -153
-25 -33 -5 -252 -13 -486 -18 -467 -10 -518 -13 -694 -41 -129 -21 -577 -132
-640 -159 -11 -5 -42 -17 -70 -26 -671 -234 -1193 -615 -1557 -1135 -145 -206
-313 -544 -392 -787 -20 -61 -59 -98 -119 -113 -162 -41 -398 -124 -586 -207
-352 -155 -723 -379 -691 -418 11 -13 178 -98 364 -185 119 -55 233 -109 395
-186 73 -35 135 -64 137 -64 10 0 424 -209 464 -234 25 -16 83 -67 130 -115
144 -145 194 -276 194 -511 0 -190 -28 -314 -126 -568 -39 -100 -55 -132 -67
-130 -10 2 -17 15 -19 38 -1 19 -6 69 -12 110 -5 41 -14 143 -20 225 -19 273
-38 363 -98 479 -45 86 -138 180 -230 233 -75 44 -214 103 -241 103 -32 0 -59
-43 -73 -115 -18 -96 -18 -684 0 -815 20 -144 51 -314 78 -425 163 -669 563
-1380 1044 -1853 146 -144 350 -312 350 -288 0 5 -39 97 -108 257 -83 192
-140 373 -202 649 -46 205 -64 661 -35 890 25 202 58 335 170 680 87 269 107
373 107 540 0 214 -55 411 -169 603 -19 32 -33 64 -30 71 3 8 31 16 71 20 96
10 257 73 349 138 87 61 147 127 211 233 28 47 36 71 37 110 0 53 6 89 34 220
50 238 98 336 256 531 177 218 388 334 739 406 137 28 452 30 635 4 136 -19
485 -82 530 -95 56 -17 396 -61 468 -61 18 0 4 -30 -22 -47 -16 -10 -55 -36
-87 -59 -99 -69 -273 -128 -504 -171 -121 -23 -160 -26 -375 -25 -132 0 -274
5 -315 12 -126 19 -296 24 -374 10 -230 -41 -402 -175 -519 -405 -35 -68 -67
-152 -67 -174 0 -34 48 -35 98 -3 20 13 25 13 33 1 5 -8 9 -26 9 -40 0 -38 29
-127 62 -193 44 -88 117 -159 209 -205 100 -50 168 -64 293 -59 93 3 107 7
178 42 95 47 174 123 221 214 46 89 61 178 53 307 l-6 102 37 6 c21 3 72 2
113 -3 41 -6 122 -14 180 -20 58 -5 143 -16 190 -24 186 -32 242 -38 410 -46
96 -5 183 -9 193 -9 23 -1 22 -21 -2 -21 -39 0 -45 -26 -21 -83 33 -75 47
-154 55 -302 7 -124 6 -132 -17 -185 -14 -30 -46 -75 -71 -100 -46 -44 -59
-74 -34 -83 6 -2 41 11 77 29 36 18 76 36 89 39 l24 7 -19 -30 c-99 -154 -249
-333 -340 -403 -48 -37 -54 -45 -54 -79 0 -45 9 -50 91 -50 54 0 59 2 59 23 0
21 55 67 79 67 10 0 145 54 222 89 497 225 881 696 970 1189 24 131 25 341 3
466 -8 48 -14 96 -12 105 5 21 92 -108 146 -214 77 -153 112 -322 119 -563 4
-112 0 -150 -21 -250 -23 -108 -64 -250 -86 -297 -137 -295 -166 -343 -315
-515 -36 -41 -65 -78 -65 -82 0 -17 49 -6 105 25 131 71 127 68 205 131 90 73
281 299 326 389 23 45 36 50 52 19 11 -22 12 -36 2 -77 -15 -65 -33 -115 -40
-115 -3 0 -6 -10 -6 -23 -2 -30 -40 -89 -91 -142 -24 -25 -43 -49 -43 -54 0
-9 -58 -67 -125 -126 -88 -77 -120 -112 -120 -131 -1 -13 4 -20 11 -17 8 3 12
-15 13 -59 l1 -63 -50 0 c-51 0 -71 15 -50 40 5 6 6 16 2 21 -4 4 0 3 9 -4 9
-6 19 -8 23 -4 4 4 13 7 19 7 17 0 17 43 1 56 -8 6 -14 8 -14 3 0 -5 -4 -3 -9
4 -7 11 -11 11 -24 -2 -8 -9 -22 -16 -29 -16 -8 0 -23 -8 -34 -17 -41 -38
-329 -162 -381 -166 -7 0 -13 -3 -13 -6 0 -3 -12 -7 -27 -7 -16 -1 -57 -7 -93
-14 -36 -6 -99 -13 -141 -16 -72 -6 -76 -5 -92 19 -23 35 -114 47 -101 12 3
-7 -5 -15 -21 -19 -18 -5 -25 -12 -21 -21 3 -9 0 -12 -10 -8 -20 7 -17 21 6
28 23 7 27 25 5 25 -8 0 -15 -5 -15 -11 0 -6 -7 -8 -16 -5 -8 3 -12 2 -9 -4 3
-6 -1 -11 -9 -11 -35 -3 -41 -5 -39 -15 3 -15 -62 -34 -78 -23 -14 8 -10 11
36 23 11 3 0 3 -25 0 -25 -2 -65 -11 -90 -19 -25 -7 -81 -22 -125 -31 -44 -10
-83 -20 -87 -24 -4 -3 -8 -20 -10 -37 -1 -21 -6 -29 -13 -23 -6 5 -19 -7 -35
-31 -13 -21 -31 -39 -40 -39 -19 0 -82 -29 -91 -42 -3 -5 -15 -10 -27 -13 -27
-5 -78 -33 -108 -60 -12 -11 -77 -49 -145 -85 -118 -63 -305 -182 -364 -231
-280 -235 -444 -430 -628 -744 -57 -99 -174 -344 -211 -442 -15 -40 -30 -73
-33 -73 -3 0 -3 42 1 93 10 150 60 363 130 554 21 57 95 205 145 291 45 77 47
82 29 82 -39 0 -182 -150 -300 -315 -162 -226 -286 -514 -333 -770 -28 -156
-34 -225 -34 -415 0 -198 5 -250 38 -430 26 -136 77 -417 93 -513 11 -63 15
-71 57 -106 180 -149 599 -281 1018 -321 65 -6 150 -15 188 -21 110 -16 583
-23 730 -10 464 39 830 126 1220 289 109 45 404 199 514 268 633 394 1153 977
1473 1653 195 412 317 840 375 1316 23 188 25 708 5 880 -56 464 -114 730
-238 1101 -206 617 -545 1133 -887 1349 -26 17 -47 37 -47 45 0 8 32 58 71
110 78 104 154 219 213 320 79 134 203 415 221 498 8 39 -3 41 -96 13 -35 -11
-131 -36 -214 -56 -82 -19 -166 -40 -185 -46 -69 -20 -358 -64 -367 -56 -2 3
20 50 51 104 65 114 117 243 146 363 25 104 48 386 34 400 -7 7 -33 -13 -80
-62 -193 -203 -378 -338 -611 -450 -137 -65 -159 -70 -149 -35 94 317 92 614
-6 890 -12 32 -24 59 -27 62 -4 2 -39 -45 -78 -103z m-194 -800 c-46 -142
-243 -360 -441 -490 -159 -104 -277 -154 -483 -206 -205 -51 -288 -65 -510
-86 -110 -11 -240 -24 -290 -30 -179 -21 -363 -41 -515 -55 -212 -20 -262 -26
-255 -34 4 -3 169 -6 368 -6 369 0 670 -15 808 -41 88 -16 414 -19 584 -4 309
26 375 33 550 56 105 14 240 34 300 44 61 10 133 21 160 24 28 4 70 11 95 16
142 30 253 53 400 80 91 17 175 33 188 36 34 7 27 -17 -19 -61 -22 -22 -69
-76 -104 -120 -64 -82 -189 -207 -281 -283 -108 -88 -330 -212 -471 -263 -32
-11 -67 -24 -78 -29 -45 -21 -161 -47 -355 -81 -85 -15 -471 -15 -580 0 -154
21 -312 50 -625 116 -162 34 -280 50 -567 76 -250 23 -609 -35 -873 -140 -216
-87 -383 -198 -550 -366 -132 -132 -217 -244 -289 -380 -48 -92 -87 -125 -143
-125 -144 0 -243 119 -251 301 -4 91 3 122 65 291 74 203 339 529 597 736 236
189 548 354 831 439 39 12 93 28 120 36 209 63 524 108 850 122 664 28 1035
94 1375 247 118 52 347 193 380 234 14 16 15 16 18 0 2 -9 -2 -33 -9 -54z
m1542 -1634 c16 -18 29 -37 29 -43 0 -6 -18 -29 -40 -50 -22 -21 -36 -43 -32
-47 4 -4 29 -1 55 8 25 8 54 14 63 12 9 -2 34 -32 55 -67 37 -62 54 -105 26
-66 -10 13 -16 15 -21 6 -4 -6 -12 -9 -17 -6 -5 4 -9 -1 -9 -11 0 -14 -2 -15
-17 -3 -13 11 -17 11 -20 1 -3 -6 -9 -10 -14 -6 -5 3 -9 -2 -9 -11 0 -11 -4
-13 -12 -8 -7 4 -23 8 -36 8 -18 1 -21 -3 -16 -20 7 -20 6 -20 -15 -1 -13 12
-21 15 -21 6 0 -7 -7 -10 -16 -6 -12 5 -15 2 -10 -9 3 -10 2 -13 -5 -10 -21
14 -59 12 -59 -1 0 -16 -16 -19 -25 -4 -3 5 -11 7 -18 4 -10 -4 -66 60 -90
102 -3 5 12 29 34 53 22 23 37 46 34 50 -3 5 -26 3 -52 -5 -66 -20 -79 -18
-102 19 -20 31 -20 32 -1 41 11 5 88 28 172 51 84 24 154 43 156 44 2 0 16
-14 33 -31z m285 -449 c61 -110 94 -182 73 -161 -19 18 -59 15 -59 -4 0 -14
-1 -14 -16 0 -17 18 -28 21 -19 6 6 -10 -8 -13 -57 -13 -16 0 -28 -3 -28 -8 0
-4 -16 -6 -36 -3 -31 3 -35 2 -30 -13 6 -15 4 -15 -14 2 -13 12 -20 14 -20 5
0 -6 -6 -10 -14 -7 -8 3 -16 1 -18 -5 -3 -8 -13 -7 -33 3 -20 10 -47 44 -87
114 -72 126 -72 126 -13 139 29 6 32 3 63 -54 34 -61 38 -65 66 -54 14 5 13
11 -5 46 -23 46 -16 58 33 58 22 0 33 -9 53 -40 23 -37 51 -50 68 -34 3 4 -5
26 -18 49 -37 61 -34 75 15 73 41 -1 41 -2 96 -99z m-966 -235 c0 -8 -5 -12
-10 -9 -6 4 -8 11 -5 16 9 14 15 11 15 -7z m323 -14 c-3 -12 -8 -19 -11 -16
-5 6 5 36 12 36 2 0 2 -9 -1 -20z m-289 -39 c-6 -6 -11 1 -18 29 l-7 25 15
-25 c8 -14 12 -27 10 -29z m1047 12 c20 -12 38 -40 64 -99 34 -81 44 -121 26
-110 -5 4 -15 -7 -22 -23 -11 -24 -16 -27 -27 -18 -8 6 -22 11 -33 12 -15 1
-18 -3 -14 -24 5 -24 5 -25 -6 -5 -13 26 -59 30 -59 6 0 -13 -2 -13 -13 2 -15
20 -47 12 -47 -12 0 -13 -3 -12 -14 4 -8 10 -18 16 -22 12 -4 -4 -13 -3 -21 3
-10 9 -13 8 -13 -2 -1 -11 -3 -10 -13 2 -7 9 -22 21 -33 27 -21 11 -111 198
-101 208 2 3 21 7 40 11 36 5 36 5 63 -51 24 -50 30 -56 57 -56 27 0 29 2 14
13 -16 11 -47 76 -47 96 0 14 26 19 113 20 58 1 87 -4 108 -16z m-717 -63 c-6
-5 -24 21 -24 34 0 6 6 1 14 -10 8 -10 12 -21 10 -24z m-37 8 c-3 -8 -6 -5 -6
6 -1 11 2 17 5 13 3 -3 4 -12 1 -19z m-317 -29 c0 -11 -4 -18 -10 -14 -5 3 -7
12 -3 20 7 21 13 19 13 -6z m47 -1 c-3 -8 -6 -5 -6 6 -1 11 2 17 5 13 3 -3 4
-12 1 -19z m320 -16 c8 -5 3 -11 -13 -19 -26 -12 -27 -12 -18 11 7 18 13 19
31 8z m-5883 -43 c59 -16 189 -163 153 -174 -6 -2 -142 -6 -302 -9 -159 -4
-354 -14 -433 -22 -114 -13 -145 -14 -157 -4 -14 11 -13 14 2 25 10 6 72 29
138 50 66 20 140 44 165 53 25 8 68 21 95 28 28 7 93 24 145 38 107 28 139 30
194 15z m5590 -28 c-4 -3 -9 0 -11 7 -3 6 -9 12 -14 12 -6 0 -8 -4 -5 -9 4 -5
-4 -6 -16 -3 -19 5 -20 7 -5 10 9 2 17 8 17 14 0 6 9 3 20 -7 11 -10 17 -21
14 -24z m11 -22 c11 -17 -1 -21 -15 -4 -8 9 -8 15 -2 15 6 0 14 -5 17 -11z
m291 -116 c3 -29 10 -43 20 -43 8 0 13 3 11 8 -3 4 -1 16 4 27 7 16 8 15 6 -8
-2 -16 -9 -32 -17 -37 -7 -4 -14 -25 -15 -47 -1 -21 -5 -47 -10 -57 -5 -11 -4
-31 3 -48 7 -19 7 -26 0 -22 -7 5 -9 -2 -6 -20 3 -14 1 -26 -3 -26 -5 0 -12 0
-16 0 -3 0 -7 13 -7 30 -1 16 2 30 5 30 3 0 6 69 7 153 1 160 3 181 9 132 2
-16 6 -49 9 -72z m-276 30 c-11 -17 -11 -17 -6 0 3 10 7 28 7 40 2 22 2 22 6
0 2 -12 -1 -30 -7 -40z m-20 37 c8 -5 11 -13 6 -17 -5 -4 -11 -3 -13 4 -2 7
-10 10 -18 7 -7 -3 -16 -1 -20 5 -8 13 24 14 45 1z m-84 -27 c-10 -10 -19 5
-10 18 6 11 8 11 12 0 2 -7 1 -15 -2 -18z m81 -68 c-6 -36 7 -49 17 -17 4 14
5 14 4 -3 -2 -77 1 -84 29 -79 22 4 24 3 14 -10 -7 -8 -11 -23 -9 -33 2 -13
-4 -19 -22 -21 -20 -2 -22 -1 -10 7 10 7 11 11 3 11 -7 0 -13 5 -13 11 0 6 8
8 18 5 10 -4 8 1 -7 13 -14 11 -25 30 -25 47 -2 19 -11 33 -31 45 -45 26 -57
24 -49 -8 7 -27 7 -27 -11 -9 -14 14 -16 22 -8 35 6 9 18 15 28 14 10 0 14 4
11 13 -4 10 4 14 31 14 35 0 36 0 30 -35z m386 -5 c-3 -20 -1 -30 6 -30 7 0 9
5 6 10 -3 6 -1 10 5 10 8 0 9 -7 5 -17 -4 -10 -8 -27 -11 -37 -9 -45 -64 -41
-64 5 0 16 4 29 10 29 5 0 6 -8 3 -17 -6 -16 -5 -16 11 -4 12 10 14 16 5 22
-7 4 -9 14 -4 25 8 18 11 27 14 40 0 3 5 2 11 -1 5 -3 7 -19 3 -35z m711 -9
c58 -6 59 -7 72 -45 8 -21 11 -42 9 -47 -3 -4 -28 -20 -55 -35 -28 -15 -47
-30 -44 -33 3 -3 33 -8 67 -11 l61 -5 18 -55 c22 -73 23 -97 3 -80 -12 10 -15
10 -15 0 0 -7 -7 -10 -15 -6 -8 3 -15 0 -15 -6 0 -7 -4 -7 -13 0 -18 15 -117
22 -118 8 0 -7 -3 -6 -6 2 -7 19 -53 15 -53 -5 0 -15 -1 -15 -12 -1 -18 21
-44 28 -57 15 -8 -8 -11 -8 -11 2 0 7 -6 11 -14 8 -14 -6 -46 55 -60 115 -6
25 -2 30 49 59 31 17 54 34 51 36 -4 4 -52 9 -112 12 -15 1 -24 10 -28 29 -4
15 -9 35 -12 45 -5 17 2 18 123 11 70 -3 155 -9 187 -13z m-1170 -102 c3 -42
-12 -99 -26 -99 -14 0 -8 28 9 46 16 16 16 16 -5 10 -18 -6 -22 -3 -22 14 0
15 5 20 15 17 11 -5 12 -1 5 19 -6 14 -10 34 -10 45 0 40 31 -8 34 -52z m511
31 c3 -5 1 -10 -4 -10 -6 0 -11 5 -11 10 0 6 2 10 4 10 3 0 8 -4 11 -10z m46
-75 c5 4 9 -8 9 -26 0 -39 -16 -28 -22 16 -3 17 -3 24 -1 17 3 -7 9 -10 14 -7z
m-422 -62 c-1 -27 -7 -54 -13 -62 -8 -10 -8 -13 0 -8 6 4 9 -6 8 -29 -2 -19 1
-34 8 -34 7 0 7 -4 -1 -14 -7 -9 -9 -32 -5 -66 5 -37 3 -51 -5 -46 -7 5 -9 1
-5 -8 4 -10 1 -16 -9 -16 -11 0 -15 9 -14 32 2 27 -2 33 -18 33 -11 0 -20 -7
-21 -15 -1 -8 -2 -24 -3 -35 l-2 -20 -9 20 -9 20 0 -20 c-1 -17 -3 -17 -11 -5
-5 8 -10 10 -10 4 0 -20 -28 -24 -42 -7 -11 15 -10 16 7 10 19 -7 19 -6 -1 10
-28 24 -38 53 -19 53 9 0 15 -10 16 -22 0 -22 1 -22 8 -3 5 11 7 23 5 26 -2 4
13 6 34 5 33 -1 37 2 40 27 2 15 7 25 11 23 4 -3 13 -1 21 5 10 6 11 9 3 9 -7
0 -13 7 -13 15 0 8 6 15 13 15 8 0 7 4 -3 10 -10 6 -11 10 -2 10 7 0 12 15 12
41 0 24 4 38 10 34 6 -4 10 7 10 24 0 17 3 31 6 31 3 0 4 -21 3 -47z m-22 15
c-3 -8 -6 -5 -6 6 -1 11 2 17 5 13 3 -3 4 -12 1 -19z m-72 -9 c-3 -4 -1 -10 5
-14 5 -3 10 -31 10 -62 0 -68 -7 -65 -17 8 -10 66 -36 76 -41 16 -3 -33 -6
-38 -25 -35 -17 2 -22 10 -23 38 -2 43 4 54 21 40 9 -8 14 -7 18 3 3 8 17 15
31 15 14 0 23 -4 21 -9z m552 -11 c-3 -8 -6 -5 -6 6 -1 11 2 17 5 13 3 -3 4
-12 1 -19z m-435 -33 c2 -19 0 -35 -4 -35 -4 0 -8 16 -8 35 0 19 2 35 4 35 2
0 6 -16 8 -35z m465 -57 c3 -16 9 -28 14 -28 5 0 8 -21 7 -47 -1 -37 -2 -41
-5 -15 -3 20 -8 30 -15 26 -7 -4 -8 -2 -4 5 9 14 -3 53 -14 46 -5 -3 -11 3
-13 12 -3 13 -5 11 -6 -6 -1 -16 -5 -21 -10 -15 -16 16 -17 50 -2 68 14 17 16
17 29 -1 7 -10 16 -30 19 -45z m0 40 c-3 -8 -6 -5 -6 6 -1 11 2 17 5 13 3 -3
4 -12 1 -19z m-310 -50 c-3 -7 -5 -2 -5 12 0 14 2 19 5 13 2 -7 2 -19 0 -25z
m331 1 c-3 -8 -7 -3 -11 10 -4 17 -3 21 5 13 5 -5 8 -16 6 -23z m-272 -2 c-6
-55 -36 -64 -36 -12 0 28 4 35 19 35 14 0 19 -6 17 -23z m184 2 c0 -6 -4 -7
-10 -4 -5 3 -10 11 -10 16 0 6 5 7 10 4 6 -3 10 -11 10 -16z m-643 -31 c-3 -7
-5 -2 -5 12 0 14 2 19 5 13 2 -7 2 -19 0 -25z m32 1 c-7 -4 -5 -8 4 -12 8 -3
17 -14 19 -25 4 -16 1 -20 -12 -17 -14 3 -17 -2 -15 -21 1 -13 8 -30 14 -38 8
-10 9 -16 1 -21 -15 -10 -12 -23 8 -28 9 -2 2 -4 -16 -4 -18 0 -35 -3 -38 -6
-3 -3 8 -5 25 -5 17 1 34 -2 38 -5 3 -4 -16 -8 -43 -9 l-49 -1 50 -7 50 -7
-46 -1 c-50 -2 -64 5 -49 23 8 9 6 14 -5 19 -8 3 -15 2 -16 -2 0 -4 -2 -17 -5
-30 -2 -14 0 -21 6 -17 5 3 10 -3 10 -14 0 -28 -16 -27 -24 2 -14 53 -5 74 28
68 5 -1 13 4 17 11 7 10 9 10 9 1 0 -20 28 -15 35 6 3 10 -3 37 -13 61 -17 39
-17 46 -3 75 10 19 19 28 23 21 4 -6 2 -13 -3 -17z m461 21 c0 -5 -4 -10 -10
-10 -5 0 -10 5 -10 10 0 6 5 10 10 10 6 0 10 -4 10 -10z m-90 -31 c0 8 2 12 5
9 3 -3 2 -13 -1 -22 -5 -14 -9 -15 -15 -4 -5 7 -9 18 -9 23 0 6 5 3 10 -5 8
-12 10 -12 10 -1z m297 -61 c-3 -7 -5 -2 -5 12 0 14 2 19 5 13 2 -7 2 -19 0
-25z m551 8 c101 -14 168 -28 177 -37 8 -8 16 -46 19 -89 4 -41 3 -68 -1 -60
-5 8 -19 15 -33 14 -14 -1 -30 3 -37 8 -7 5 -16 7 -22 4 -5 -3 -12 0 -14 6 -3
7 -6 4 -7 -7 0 -17 -2 -18 -13 -5 -13 17 -39 20 -48 6 -4 -5 -12 1 -18 13 -10
17 -15 19 -31 9 -10 -7 -16 -17 -14 -23 3 -5 -4 1 -15 14 -12 13 -21 20 -21
16 0 -4 -7 -2 -15 5 -12 10 -15 9 -15 -6 0 -17 -1 -17 -15 2 -9 12 -14 14 -15
6 0 -26 -17 -2 -28 40 -22 86 -24 108 -10 108 7 -1 86 -11 176 -24z m-820 0
c-18 -13 -26 -32 -9 -22 5 3 8 -2 7 -12 -1 -13 7 -17 35 -16 26 0 35 -4 36
-16 1 -13 -8 -17 -47 -17 l-48 0 -4 39 c-3 28 1 42 12 48 23 14 37 11 18 -4z
m239 -23 c-3 -10 -5 -4 -5 12 0 17 2 24 5 18 2 -7 2 -21 0 -30z m80 15 c-3 -8
-6 -5 -6 6 -1 11 2 17 5 13 3 -3 4 -12 1 -19z m-764 -28 c-9 -11 -19 -18 -21
-16 -6 7 22 45 30 40 4 -3 0 -13 -9 -24z m512 10 c3 -5 2 -10 -4 -10 -5 0 -13
5 -16 10 -3 6 -2 10 4 10 5 0 13 -4 16 -10z m-111 -81 c-7 -13 -24 7 -24 29 0
10 4 10 16 -2 8 -9 12 -21 8 -27z m396 -49 c0 -13 -1 -13 -10 0 -5 8 -10 22
-10 30 0 13 1 13 10 0 5 -8 10 -22 10 -30z m-445 20 c3 -5 1 -10 -4 -10 -6 0
-11 5 -11 10 0 6 2 10 4 10 3 0 8 -4 11 -10z m32 -41 c3 -19 2 -19 -13 -5 -8
9 -12 21 -9 27 9 13 18 4 22 -22z m-32 -18 c3 -5 1 -12 -5 -16 -5 -3 -10 1
-10 9 0 18 6 21 15 7z m-148 -23 c-3 -8 -6 -5 -6 6 -1 11 2 17 5 13 3 -3 4
-12 1 -19z m90 -4 c-10 -10 -58 -13 -52 -4 3 5 12 7 19 4 8 -3 17 0 21 6 4 6
10 9 13 6 3 -3 2 -9 -1 -12z m1007 -19 c202 -48 196 -44 196 -101 0 -43 -1
-46 -22 -40 -13 3 -42 9 -65 12 -35 6 -43 4 -43 -9 0 -9 6 -19 13 -24 19 -12
80 -33 98 -33 28 0 36 -22 43 -105 6 -69 5 -78 -7 -63 -8 10 -17 15 -20 11 -4
-3 -13 -1 -21 6 -11 9 -15 9 -19 -1 -4 -8 -6 -7 -6 5 -1 19 -21 24 -21 5 0 -9
-3 -8 -10 2 -7 12 -11 10 -19 -10 -8 -20 -10 -21 -10 -6 -1 26 -32 48 -48 34
-9 -7 -13 -7 -13 1 0 7 -8 11 -17 10 -38 -3 -53 2 -53 17 0 13 -3 14 -14 5
-11 -9 -15 -9 -19 1 -3 7 -6 2 -7 -12 l-1 -25 -14 25 c-8 14 -14 21 -15 15 0
-5 -6 -1 -14 10 -7 11 -17 49 -21 84 l-7 64 43 -6 c24 -4 54 -10 67 -13 19 -5
22 -2 22 19 0 27 -3 29 -103 53 -33 8 -33 8 -42 62 -5 31 -3 42 6 42 7 0 80
-16 163 -35z m-1294 -5 c0 -11 -4 -20 -9 -20 -6 0 -9 9 -8 20 1 11 5 20 9 20
4 0 8 -9 8 -20z m287 -12 c-3 -8 -6 -5 -6 6 -1 11 2 17 5 13 3 -3 4 -12 1 -19z
m523 -18 c0 -12 -3 -12 -16 2 -9 9 -13 21 -9 28 9 14 25 -5 25 -30z m-540 20
c0 -5 -4 -10 -10 -10 -5 0 -10 5 -10 10 0 6 5 10 10 10 6 0 10 -4 10 -10z
m507 -52 c-3 -7 -5 -2 -5 12 0 14 2 19 5 13 2 -7 2 -19 0 -25z m25 -100 l1
-53 7 50 7 50 1 -53 c1 -35 -3 -58 -12 -68 -11 -11 -13 -34 -9 -105 4 -62 3
-90 -4 -86 -6 4 -13 18 -15 32 -3 13 -1 22 3 19 5 -3 9 11 9 30 0 20 -3 35 -7
34 -11 -4 -14 9 -6 28 3 9 1 25 -5 35 -17 27 -14 38 4 14 13 -18 14 -13 8 53
-5 51 -4 72 5 72 6 0 12 -21 13 -52z m-46 -103 c-4 -24 -16 -30 -16 -7 0 12 4
22 9 22 5 0 8 -7 7 -15z m66 -10 c-2 -14 -6 -25 -8 -25 -2 0 -4 11 -4 25 0 14
4 25 9 25 4 0 6 -11 3 -25z m8 -63 c0 -15 -2 -15 -10 -2 -13 20 -13 33 0 25 6
-3 10 -14 10 -23z m-53 -14 c-3 -8 -6 -5 -6 6 -1 11 2 17 5 13 3 -3 4 -12 1
-19z m457 -24 c12 -5 16 -20 16 -59 0 -30 5 -57 13 -62 11 -9 158 -63 171 -63
3 0 6 25 6 55 0 30 2 55 5 55 2 0 20 -8 40 -17 l35 -17 0 -118 c0 -85 -3 -117
-11 -112 -6 3 -15 0 -20 -7 -7 -11 -9 -10 -9 4 0 10 -4 15 -10 12 -19 -12 -10
-44 20 -67 l31 -24 -10 -128 c-6 -71 -15 -134 -20 -139 -8 -8 -11 -5 -11 10 0
12 -8 23 -20 26 -13 3 -20 0 -20 -9 0 -8 -4 -14 -10 -14 -5 0 -10 12 -10 27 0
14 -3 23 -7 20 -3 -4 -12 -2 -20 4 -10 9 -13 7 -14 -7 0 -15 -2 -14 -10 6 -8
20 -12 22 -19 10 -8 -13 -10 -12 -10 3 0 20 -16 23 -23 5 -3 -7 -6 -3 -6 10
-1 24 -16 30 -24 10 -3 -7 -6 -4 -6 6 -1 20 -1 20 -16 0 -14 -18 -14 -18 -15
6 0 19 -5 26 -20 26 -11 0 -20 -4 -20 -8 0 -4 -4 -8 -10 -8 -5 0 -10 7 -10 16
0 8 -4 13 -9 10 -14 -9 -22 39 -15 99 4 32 12 55 19 55 6 0 61 -22 121 -49 60
-27 112 -47 116 -45 3 2 9 23 13 47 3 23 8 54 11 70 5 25 3 27 -26 27 -19 0
-33 6 -37 16 -4 12 -14 14 -34 10 -22 -4 -29 -2 -29 10 0 8 -4 13 -9 9 -6 -3
-14 3 -20 12 -10 17 -10 17 -11 -2 -1 -18 -2 -17 -15 5 -13 22 -14 23 -15 5
-1 -19 -1 -19 -11 -1 -9 15 -13 16 -20 5 -7 -11 -9 -9 -9 6 0 11 -9 34 -20 50
-16 24 -20 47 -20 123 0 91 0 92 24 92 13 0 31 -3 40 -6z m-1494 -64 c0 -5 -5
-10 -11 -10 -5 0 -7 5 -4 10 3 6 8 10 11 10 2 0 4 -4 4 -10z m173 -7 c-13 -2
-33 -2 -45 0 -13 2 -3 4 22 4 25 0 35 -2 23 -4z m-118 -20 c15 2 21 -5 23 -26
3 -27 1 -28 -30 -25 -27 2 -33 7 -34 28 0 31 6 46 15 32 3 -6 15 -10 26 -9z
m1018 10 c4 7 6 8 6 1 1 -6 -5 -16 -12 -22 -10 -8 -16 -6 -25 9 -12 18 -11 19
7 10 14 -8 21 -8 24 2z m-3 -78 c0 -5 -5 -3 -10 5 -5 8 -10 20 -10 25 0 6 5 3
10 -5 5 -8 10 -19 10 -25z m-25 -5 c-3 -5 -11 -10 -16 -10 -6 0 -7 5 -4 10 3
6 11 10 16 10 6 0 7 -4 4 -10z m-1155 -34 c0 -5 -3 -6 -7 -3 -3 4 -12 2 -20
-4 -16 -14 -17 -5 -1 21 9 14 14 16 20 7 4 -7 8 -16 8 -21z m45 -25 c-3 -6
-11 -8 -17 -5 -6 4 -5 9 3 15 16 10 23 4 14 -10z m-126 -68 c0 -5 -4 -17 -9
-28 -8 -17 -8 -16 -7 8 1 15 5 27 9 27 4 0 8 -3 7 -7z m1231 -3 c0 -5 -2 -10
-4 -10 -3 0 -8 5 -11 10 -3 6 -1 10 4 10 6 0 11 -4 11 -10z m-20 -27 c0 -8
-10 -24 -21 -36 -21 -21 -21 -21 -11 -1 6 12 8 25 4 29 -4 5 -1 5 7 0 10 -6
12 -4 6 5 -6 10 -12 7 -25 -10 l-17 -22 3 23 c1 13 3 24 3 25 12 6 51 -4 51
-13z m-1214 -38 c-3 -23 -12 -26 -13 -5 -1 11 2 20 7 20 4 0 7 -7 6 -15z
m1164 -41 c0 -8 -4 -14 -10 -14 -5 0 -10 9 -10 21 0 11 5 17 10 14 6 -3 10
-13 10 -21z m32 -16 c-7 -7 -12 -8 -12 -2 0 14 12 26 19 19 2 -3 -1 -11 -7
-17z m-1332 -31 c0 -29 -3 -32 -30 -32 -27 -1 -30 2 -30 32 0 30 3 33 30 33
27 0 30 -3 30 -33z m1320 -2 c0 -8 -4 -15 -10 -15 -5 0 -10 7 -10 15 0 8 5 15
10 15 6 0 10 -7 10 -15z m-30 -35 c0 -5 -5 -10 -11 -10 -5 0 -7 5 -4 10 3 6 8
10 11 10 2 0 4 -4 4 -10z m-38 -22 c-7 -7 -12 -8 -12 -2 0 14 12 26 19 19 2
-3 -1 -11 -7 -17z m-1626 -3 c16 -13 17 -16 4 -25 -13 -8 -46 -5 -59 6 -4 3
22 33 30 34 3 0 14 -7 25 -15z m1659 -4 c3 -5 1 -12 -5 -16 -5 -3 -10 1 -10 9
0 18 6 21 15 7z m-40 -38 c-5 -10 -7 -23 -6 -29 0 -6 -5 -17 -13 -23 -12 -10
-14 -8 -9 11 4 18 3 20 -6 8 -6 -8 -11 -11 -11 -7 0 5 -5 5 -11 1 -8 -4 -7 -9
2 -15 10 -6 11 -9 2 -9 -8 0 -13 -14 -13 -35 0 -19 5 -35 11 -35 5 0 7 -5 3
-11 -4 -8 -11 -4 -18 10 -7 12 -15 19 -18 15 -4 -3 -1 -16 7 -28 10 -16 10
-27 2 -46 -11 -24 -11 -23 -15 15 -1 22 -8 45 -15 50 -21 17 -17 56 7 67 17 7
21 16 18 37 -3 25 -1 28 21 26 14 -2 31 -6 37 -10 7 -4 14 2 17 14 3 12 8 20
11 17 2 -3 1 -13 -3 -23z m-2375 -34 c0 -4 -7 -6 -15 -3 -8 4 -15 10 -15 15 0
4 7 6 15 3 8 -4 15 -10 15 -15z m-65 -15 c-11 -8 -26 -12 -33 -9 -8 3 -19 6
-25 6 -7 1 4 5 23 9 53 11 57 11 35 -6z m485 2 c0 -11 -19 -15 -25 -6 -3 5 1
10 9 10 9 0 16 -2 16 -4z m-247 -13 c-7 -2 -19 -2 -25 0 -7 3 -2 5 12 5 14 0
19 -2 13 -5z m380 0 c-13 -2 -35 -2 -50 0 -16 2 -5 4 22 4 28 0 40 -2 28 -4z
m2391 -108 c-6 -63 -4 -73 11 -79 22 -8 35 9 35 45 0 37 7 40 47 21 34 -16 35
-17 31 -77 -3 -54 -1 -60 17 -60 15 0 22 11 31 53 7 30 14 56 17 59 3 2 19 -5
36 -18 33 -24 36 -40 21 -106 -6 -24 -15 -75 -20 -114 -6 -39 -13 -75 -16 -80
-6 -10 -38 18 -47 41 -4 11 -6 10 -7 -5 -1 -19 -1 -19 -11 -2 -6 9 -14 15 -19
12 -4 -3 -11 3 -15 13 -7 16 -8 15 -15 -3 -8 -18 -9 -17 -9 8 -1 28 -15 37
-24 15 -3 -7 -6 -4 -6 6 -1 20 -1 20 -16 0 -14 -18 -14 -18 -15 8 0 21 -5 26
-20 25 -11 -1 -20 -5 -20 -9 0 -4 -4 -8 -10 -8 -5 0 -10 11 -10 24 0 25 -29
44 -39 27 -4 -6 -13 4 -20 20 -14 31 -13 58 8 194 16 100 14 98 56 78 l35 -17
-6 -71z m-3052 55 c-4 -3 -10 -9 -14 -15 -4 -5 -8 5 -8 24 0 33 1 34 14 15 8
-10 11 -21 8 -24z m-32 3 c0 -14 -3 -23 -7 -19 -10 10 -11 46 -1 46 4 0 8 -12
8 -27z m174 11 c21 -8 21 -34 0 -34 -22 0 -48 27 -31 33 6 3 13 6 14 6 1 1 8
-2 17 -5z m-264 -19 c0 -8 -7 -15 -15 -15 -16 0 -20 12 -8 23 11 12 23 8 23
-8z m820 -7 c0 -4 -30 -8 -67 -7 -48 0 -62 3 -48 9 25 11 115 9 115 -2z m-162
-5 c-16 -2 -40 -2 -55 0 -16 2 -3 4 27 4 30 0 43 -2 28 -4z m-721 -45 c-3 -8
-6 -5 -6 6 -1 11 2 17 5 13 3 -3 4 -12 1 -19z m-17 -18 c0 -5 -4 -10 -10 -10
-5 0 -10 5 -10 10 0 6 5 10 10 10 6 0 10 -4 10 -10z m2556 -22 c2 -3 0 -16 -5
-29 -10 -24 -10 -24 -10 5 -1 19 -5 27 -14 23 -8 -3 -20 -1 -28 4 -9 6 -3 8
19 5 18 -2 35 -6 38 -8z m-2579 -4 c-3 -3 -12 -4 -19 -1 -8 3 -5 6 6 6 11 1
17 -2 13 -5z m2500 -41 c-3 -10 -5 -4 -5 12 0 17 2 24 5 18 2 -7 2 -21 0 -30z
m113 23 c0 -2 -8 -10 -17 -17 -16 -13 -17 -12 -4 4 13 16 21 21 21 13z m-2595
-16 c4 -6 -6 -7 -27 -3 -44 8 -48 13 -10 13 17 0 34 -4 37 -10z m90 -95 c-1
-38 -4 -92 -5 -120 l-3 -50 -7 60 -7 60 -1 -57 c-1 -35 -6 -58 -13 -58 -8 0
-9 27 -5 88 4 48 7 104 8 124 1 20 6 34 10 32 4 -3 8 3 9 13 0 16 1 16 9 -2 4
-11 7 -51 5 -90z m-225 85 c0 -5 -4 -10 -10 -10 -5 0 -10 5 -10 10 0 6 5 10
10 10 6 0 10 -4 10 -10z m2700 -20 c0 -13 -12 -19 -26 -13 -21 8 -17 22 6 20
11 -1 20 -4 20 -7z m-2574 -65 c-2 -52 -1 -55 22 -55 22 0 23 -3 21 -65 -2
-61 -4 -66 -23 -63 -16 2 -21 10 -21 33 -1 20 -6 30 -15 30 -8 0 -15 8 -15 17
0 10 -4 18 -8 18 -53 1 -52 1 -32 -13 13 -10 15 -16 6 -21 -9 -6 -9 -11 1 -24
10 -12 10 -16 1 -19 -7 -3 -13 -11 -13 -18 0 -10 -16 -14 -60 -14 -45 1 -60 4
-60 15 0 17 16 19 23 2 3 -7 3 2 0 20 -4 22 -2 32 7 32 7 0 19 8 27 18 11 12
13 13 10 2 -6 -22 19 -44 27 -24 3 9 1 12 -4 9 -6 -3 -10 -1 -10 6 0 17 53 60
68 54 6 -2 12 0 12 5 0 6 -4 10 -10 10 -5 0 -10 5 -10 10 0 6 7 10 16 10 14 0
14 3 4 15 -7 9 -10 19 -6 22 4 4 11 1 17 -7 7 -11 8 -7 3 12 -3 15 -3 32 1 38
14 22 23 -2 21 -55z m2548 36 c3 -5 -1 -14 -8 -20 -11 -9 -16 -9 -22 0 -4 8
-3 9 4 5 7 -4 12 -1 12 8 0 18 6 21 14 7z m-2509 -10 c-3 -5 -1 -12 3 -15 5
-3 9 -16 8 -28 -1 -30 -36 -38 -36 -9 0 12 6 21 13 22 9 0 9 2 0 5 -13 6 -6
34 9 34 5 0 7 -4 3 -9z m2461 -49 c2 -33 1 -34 -7 -13 -5 13 -11 22 -12 20 -1
-2 -9 -12 -16 -22 -12 -15 -12 -17 4 -11 13 5 16 4 11 -4 -4 -7 -15 -12 -25
-12 -27 0 -24 72 2 76 11 1 21 5 25 8 10 10 16 -4 18 -42z m-2610 -59 c-7 -7
-26 7 -26 19 0 6 6 6 15 -2 9 -7 13 -15 11 -17z m2576 -8 c0 -5 -5 -11 -11
-13 -6 -2 -11 4 -11 13 0 9 5 15 11 13 6 -2 11 -8 11 -13z m841 -99 c138 -100
139 -101 133 -135 -8 -51 -21 -59 -57 -32 -37 27 -48 21 -25 -14 9 -14 24 -37
33 -52 l17 -26 -47 6 c-26 4 -47 3 -47 -2 0 -5 16 -22 36 -38 l35 -28 -15 -57
c-8 -31 -20 -67 -26 -79 -12 -22 -12 -21 -27 9 -9 19 -20 29 -29 25 -8 -3 -14
0 -14 7 0 6 -4 8 -10 5 -5 -3 -10 1 -10 9 0 19 -16 21 -23 4 -3 -7 -6 -3 -6 9
-1 16 -5 21 -17 16 -13 -5 -15 -2 -9 18 7 21 6 22 -9 10 -14 -12 -16 -11 -16
3 0 10 -4 14 -10 11 -5 -3 -10 1 -10 9 0 19 -16 21 -23 4 -3 -7 -6 -2 -6 11
-1 16 -5 21 -16 17 -8 -3 -15 0 -15 7 0 8 -4 6 -10 -3 -8 -12 -10 -11 -10 8 0
12 -4 22 -10 22 -15 0 -12 65 6 110 16 40 16 40 70 40 30 0 54 4 54 8 0 4 -16
32 -35 62 -39 62 -39 61 -24 113 6 25 14 35 22 31 7 -4 74 -53 150 -108z
m-863 58 c0 -2 -7 -4 -15 -4 -8 0 -15 4 -15 10 0 5 7 7 15 4 8 -4 15 -8 15
-10z m-50 -9 c0 -8 6 -13 13 -11 6 1 9 1 4 -1 -4 -3 -4 -10 -1 -15 4 -6 2 -8
-4 -4 -5 3 -12 0 -15 -6 -6 -17 -14 -8 -22 25 -6 21 -4 27 9 27 9 0 16 -7 16
-15z m-2413 -17 c-3 -8 -6 -5 -6 6 -1 11 2 17 5 13 3 -3 4 -12 1 -19z m593 -8
c0 -5 -7 -7 -15 -4 -8 4 -15 8 -15 10 0 2 7 4 15 4 8 0 15 -4 15 -10z m-158
-34 c9 5 8 2 -2 -10 -8 -11 -16 -14 -18 -7 -2 6 -10 11 -18 11 -9 0 -12 5 -9
10 5 8 11 7 20 0 8 -7 20 -8 27 -4z m283 4 c3 -5 -1 -10 -9 -10 -9 0 -16 5
-16 10 0 6 4 10 9 10 6 0 13 -4 16 -10z m-930 -10 c-3 -5 -11 -10 -16 -10 -6
0 -7 5 -4 10 3 6 11 10 16 10 6 0 7 -4 4 -10z m444 3 c-1 -5 -1 -15 0 -23 1
-13 2 -13 11 0 5 8 10 11 11 5 0 -5 2 -18 4 -29 2 -10 1 -25 -2 -33 -5 -12 -7
-12 -14 -1 -7 10 -9 10 -9 0 0 -14 -58 -8 -74 9 -10 9 -8 10 17 13 6 0 12 8
12 16 0 8 7 15 15 15 9 0 14 8 12 18 -2 9 2 17 8 17 5 0 9 -3 9 -7z m268 -12
c10 -17 9 -20 -13 -25 -14 -4 -29 -4 -35 -1 -11 7 -2 25 12 25 6 0 7 -4 4 -10
-3 -5 -1 -10 6 -10 6 0 9 8 6 20 -7 25 5 26 20 1z m150 13 c-3 -3 -12 -4 -19
-1 -8 3 -5 6 6 6 11 1 17 -2 13 -5z m-797 -10 c0 -3 -5 -14 -10 -25 -7 -13 -7
-19 0 -19 5 0 10 -16 10 -35 0 -28 -4 -35 -19 -35 -16 0 -18 7 -16 58 1 31 3
58 4 60 2 5 31 2 31 -4z m-110 -8 c0 -3 -4 -8 -10 -11 -5 -3 -10 -1 -10 4 0 6
5 11 10 11 6 0 10 -2 10 -4z m1804 -21 l-27 -25 23 0 c13 0 20 -3 16 -7 -4 -5
-20 -8 -34 -8 -21 -1 -28 -6 -30 -25 -2 -14 -8 -29 -14 -35 -7 -7 -9 -2 -6 17
3 15 1 32 -3 39 -4 7 -5 18 -1 24 4 5 7 14 7 20 0 10 37 22 73 24 23 1 23 1
-4 -24z m826 5 c0 -5 -4 -10 -10 -10 -5 0 -10 5 -10 10 0 6 5 10 10 10 6 0 10
-4 10 -10z m-1670 -10 c0 -5 -12 -10 -27 -10 -22 0 -25 2 -13 10 20 13 40 13
40 0z m-980 -15 c9 6 9 3 1 -12 -6 -11 -8 -23 -5 -25 2 -3 -3 -11 -12 -19 -15
-12 -16 -11 -10 9 8 24 -3 29 -22 10 -9 -9 -12 -9 -12 1 0 7 9 15 19 18 13 3
18 11 14 21 -4 14 -3 14 5 3 5 -7 15 -10 22 -6z m597 -10 c0 -11 -4 -12 -14
-4 -7 6 -13 13 -13 15 0 2 6 4 13 4 8 0 14 -7 14 -15z m57 0 c-10 -8 -26 -14
-34 -14 -11 0 -10 3 4 14 11 8 27 15 35 15 11 0 10 -4 -5 -15z m1273 4 c-14
-8 -22 -8 -30 0 -8 8 -3 11 19 11 25 -1 27 -2 11 -11z m643 -4 c0 -8 -4 -15
-10 -15 -5 0 -10 7 -10 15 0 8 5 15 10 15 6 0 10 -7 10 -15z m30 5 c0 -5 -4
-10 -10 -10 -5 0 -10 5 -10 10 0 6 5 10 10 10 6 0 10 -4 10 -10z m-2572 -32
c1 -23 -1 -29 -7 -19 -7 11 -8 29 -2 49 3 10 7 -3 9 -30z m39 26 c-3 -3 -12
-4 -19 -1 -8 3 -5 6 6 6 11 1 17 -2 13 -5z m843 -4 c0 -5 -5 -10 -11 -10 -5 0
-7 5 -4 10 3 6 8 10 11 10 2 0 4 -4 4 -10z m-863 -42 c-3 -7 -5 -2 -5 12 0 14
2 19 5 13 2 -7 2 -19 0 -25z m368 22 c3 -5 1 -10 -4 -10 -6 0 -11 5 -11 10 0
6 2 10 4 10 3 0 8 -4 11 -10z m150 0 c3 -5 1 -10 -4 -10 -6 0 -11 5 -11 10 0
6 2 10 4 10 3 0 8 -4 11 -10z m1262 -16 c-3 -4 -14 -3 -24 0 -15 6 -15 8 -3
16 16 10 39 -4 27 -16z m-1439 -1 c7 -12 19 -15 48 -10 22 3 33 3 27 0 -7 -2
-13 -10 -13 -16 0 -7 -18 -12 -46 -13 -26 -1 -40 2 -32 7 7 4 9 11 5 16 -10 9
-47 -37 -44 -54 2 -11 -1 -13 -23 -13 -15 0 33 69 54 76 15 5 16 8 5 15 -9 6
-10 9 -2 9 7 0 16 -7 21 -17z m501 14 c-2 -1 -13 -9 -24 -17 -19 -14 -19 -14
-6 3 7 9 18 17 24 17 6 0 8 -1 6 -3z m51 -16 c0 -3 -14 -6 -30 -7 -26 -1 -28
0 -13 11 16 12 43 10 43 -4z m1612 -16 c3 -14 1 -25 -3 -25 -9 0 -10 2 -14 37
-3 30 11 20 17 -12z m-592 5 c0 -5 -2 -10 -4 -10 -3 0 -8 5 -11 10 -3 6 -1 10
4 10 6 0 11 -4 11 -10z m-240 -15 c16 -19 0 -19 -26 0 -16 12 -16 14 -3 15 9
0 22 -7 29 -15z m-153 -27 c-3 -7 -5 -2 -5 12 0 14 2 19 5 13 2 -7 2 -19 0
-25z m39 20 c5 -7 3 -8 -6 -3 -9 5 -10 2 -5 -14 3 -11 3 -21 -2 -21 -5 0 -10
11 -11 25 -2 26 12 34 24 13z m64 -8 c11 -7 9 -11 -13 -19 -35 -14 -47 -14
-47 -1 0 6 9 10 21 10 11 0 17 5 14 10 -8 12 5 13 25 0z m350 -10 c0 -5 -4
-10 -10 -10 -5 0 -10 5 -10 10 0 6 5 10 10 10 6 0 10 -4 10 -10z m-1630 -14
c-14 -7 -29 -10 -34 -8 -11 6 20 20 44 21 8 0 4 -5 -10 -13z m-520 -19 c0 -13
-3 -27 -7 -31 -4 -4 -7 -19 -8 -34 0 -20 -6 -28 -22 -30 -27 -4 -25 18 6 54
13 15 21 34 18 45 -3 10 -1 19 4 19 5 0 9 -10 9 -23z m50 13 c8 13 10 12 10
-2 0 -10 6 -17 13 -15 6 1 11 -3 10 -10 -2 -7 3 -10 11 -7 17 7 25 -6 28 -41
2 -15 9 -30 18 -33 8 -3 20 -13 26 -21 10 -12 8 -17 -9 -26 -11 -5 -21 -19
-23 -30 -3 -19 -2 -19 16 3 10 12 24 22 32 22 8 -1 7 -4 -4 -11 -10 -5 -18
-16 -18 -23 0 -12 -47 -32 -55 -24 -2 2 2 20 9 40 15 43 5 71 -12 33 -12 -26
-20 -30 -38 -17 -11 8 -13 56 -2 68 4 4 4 12 0 18 -4 6 -7 16 -7 21 0 6 -10
11 -23 13 -16 3 -22 8 -18 19 3 8 6 20 6 26 0 7 4 6 10 -3 9 -13 11 -13 20 0z
m891 -7 c0 -15 2 -15 9 2 6 14 9 16 10 5 9 -89 12 -81 -28 -74 -20 3 -41 10
-46 14 -5 5 -16 6 -25 3 -9 -4 1 10 22 30 43 41 57 46 58 20z m694 -25 c-8 -5
-13 -13 -10 -18 3 -5 1 -11 -4 -14 -5 -3 -11 3 -14 14 -4 14 0 20 11 21 11 0
12 2 4 6 -6 2 -9 9 -6 14 3 6 12 5 21 -2 12 -11 12 -14 -2 -21z m75 11 c0 -6
-4 -7 -10 -4 -5 3 -10 11 -10 16 0 6 5 7 10 4 6 -3 10 -11 10 -16z m440 11 c0
-5 -2 -10 -4 -10 -3 0 -8 5 -11 10 -3 6 -1 10 4 10 6 0 11 -4 11 -10z m-1772
-25 c-1 -2 -16 -1 -31 2 -20 4 -25 8 -16 14 12 7 56 -8 47 -16z m42 15 c8 -5
11 -10 5 -10 -5 0 -17 5 -25 10 -8 5 -10 10 -5 10 6 0 17 -5 25 -10z m420 -4
c0 -3 -4 -8 -10 -11 -5 -3 -10 -1 -10 4 0 6 5 11 10 11 6 0 10 -2 10 -4z m187
-2 c-3 -3 -12 -4 -19 -1 -8 3 -5 6 6 6 11 1 17 -2 13 -5z m550 -17 c-3 -8 -15
-17 -28 -20 l-23 -6 25 23 c26 25 35 26 26 3z m1029 -4 c-6 -6 -36 9 -36 18 0
5 9 4 20 -3 10 -7 18 -14 16 -15z m-636 7 c0 -5 -4 -10 -10 -10 -5 0 -10 5
-10 10 0 6 5 10 10 10 6 0 10 -4 10 -10z m-1720 -10 c0 -5 -5 -10 -11 -10 -5
0 -7 5 -4 10 3 6 8 10 11 10 2 0 4 -4 4 -10z m142 -8 c-26 -13 -34 -13 -45 -3
-10 11 -8 12 10 7 12 -4 24 -2 28 4 3 5 14 10 23 9 10 0 4 -7 -16 -17z m672 9
c5 -1 3 -8 -4 -16 -10 -12 -16 -13 -26 -4 -11 9 -14 8 -14 -2 0 -9 -3 -10 -11
-2 -16 16 -4 30 23 27 13 -1 27 -3 32 -3z m1422 -6 c-6 -18 2 -45 15 -45 4 0
6 7 2 16 -5 14 -3 14 14 3 20 -12 20 -13 2 -33 -11 -11 -19 -24 -19 -29 0 -4
-9 -5 -21 -2 -18 6 -20 4 -14 -17 4 -15 3 -18 -3 -10 -5 7 -16 10 -28 6 -15
-6 -14 -3 5 14 13 12 27 22 31 22 4 0 6 15 5 33 -2 32 3 57 12 57 3 0 3 -7 -1
-15z m-1676 -16 c0 -5 -4 -9 -10 -9 -5 0 -10 7 -10 16 0 8 5 12 10 9 6 -3 10
-10 10 -16z m1195 11 c-3 -5 -10 -10 -16 -10 -5 0 -9 5 -9 10 0 6 7 10 16 10
8 0 12 -4 9 -10z m95 -6 c0 -10 -5 -12 -12 -7 -7 4 -22 9 -32 10 -35 6 -30 13
7 13 27 0 37 -4 37 -16z m-1761 -10 c2 -2 2 -7 -1 -10 -9 -8 -78 7 -78 17 0 8
70 2 79 -7z m1114 6 c7 -1 -6 -7 -28 -15 -29 -10 -42 -11 -50 -3 -7 8 -5 9 7
5 10 -3 19 0 22 10 4 9 13 13 22 9 9 -3 21 -6 27 -6z m147 6 c0 -3 -4 -8 -10
-11 -5 -3 -10 -1 -10 4 0 6 5 11 10 11 6 0 10 -2 10 -4z m-824 -63 c-1 -26 -7
-48 -14 -51 -7 -2 -12 3 -12 12 0 9 -5 16 -11 16 -6 0 -8 7 -5 17 4 9 1 20 -6
25 -9 6 -5 7 10 3 18 -5 22 -2 22 15 0 12 4 19 9 16 5 -4 8 -27 7 -53z m1284
48 c0 -5 15 -8 34 -7 19 1 32 -2 30 -6 -3 -5 -14 -8 -25 -8 -11 0 -17 -4 -14
-10 3 -5 -1 -10 -9 -10 -12 0 -16 -11 -17 -37 -1 -21 -1 -41 0 -45 0 -5 -7 -8
-17 -8 -13 0 -18 8 -19 35 0 19 3 32 7 30 5 -3 12 -1 15 5 4 6 1 9 -7 8 -8 -2
-13 6 -12 19 0 12 -3 20 -8 17 -4 -3 -5 2 -2 10 6 17 44 22 44 7z m-1800 -16
c7 -9 8 -15 2 -15 -5 0 -12 7 -16 15 -3 8 -4 15 -2 15 2 0 9 -7 16 -15z m564
-17 c-19 -21 -19 -21 3 -16 16 4 20 2 16 -8 -6 -17 -8 -17 -33 -2 -18 12 -18
13 -2 30 25 25 39 22 16 -4z m614 10 c-3 -7 -13 -15 -24 -17 -16 -3 -17 -1 -5
13 16 19 34 21 29 4z m92 2 c-8 -5 -19 -10 -25 -10 -5 0 -3 5 5 10 8 5 20 10
25 10 6 0 3 -5 -5 -10z m410 -20 c0 7 2 11 5 8 3 -3 3 -12 -1 -21 -5 -14 -8
-14 -20 -2 -8 7 -14 20 -14 27 1 8 6 6 15 -6 10 -13 15 -15 15 -6z m207 -2
c-3 -8 -6 -5 -6 6 -1 11 2 17 5 13 3 -3 4 -12 1 -19z m243 12 c0 -5 -16 -10
-35 -10 -19 0 -35 5 -35 10 0 6 16 10 35 10 19 0 35 -4 35 -10z m-260 -4 c0
-11 -19 -15 -25 -6 -3 5 1 10 9 10 9 0 16 -2 16 -4z m-2175 -16 c-3 -5 -11
-10 -16 -10 -6 0 -7 5 -4 10 3 6 11 10 16 10 6 0 7 -4 4 -10z m764 -9 c10 -18
6 -31 -10 -31 -4 0 -5 10 -1 22 4 17 2 20 -12 15 -10 -4 -15 -3 -11 3 10 15
23 12 34 -9z m1664 2 c-13 -2 -33 -2 -45 0 -13 2 -3 4 22 4 25 0 35 -2 23 -4z
m-2392 -37 c1 -11 1 -25 0 -29 -1 -5 2 -6 7 -3 11 7 24 -4 45 -36 22 -34 22
-33 -8 -36 -18 -1 -29 5 -36 22 -10 20 -14 22 -35 12 -27 -12 -32 -26 -9 -26
8 0 15 5 15 10 0 17 15 11 29 -12 13 -22 13 -22 -4 -8 -14 11 -19 12 -22 3 -7
-19 -21 -16 -51 12 -15 15 -20 23 -10 20 21 -8 66 14 49 25 -10 5 -11 56 -2
77 1 1 8 0 16 -3 8 -4 16 -16 16 -28z m226 28 c-3 -3 -12 -4 -19 -1 -8 3 -5 6
6 6 11 1 17 -2 13 -5z m1151 -1 c-9 -2 -18 -12 -20 -21 -3 -13 -5 -12 -10 6
-5 19 -2 22 20 21 16 -1 20 -3 10 -6z m759 -23 c2 -15 -2 -19 -17 -17 -25 4
-38 17 -17 17 10 0 17 8 17 17 0 21 13 8 17 -17z m20 -7 c-3 -10 -5 -4 -5 12
0 17 2 24 5 18 2 -7 2 -21 0 -30z m-2305 5 c-7 -7 -12 -8 -12 -2 0 6 3 14 7
17 3 4 9 5 12 2 2 -3 -1 -11 -7 -17z m1373 13 c3 -5 1 -12 -5 -16 -6 -4 -8
-11 -5 -16 4 -5 1 -9 -4 -9 -6 0 -10 11 -9 25 2 25 12 32 23 16z m84 -12 c-22
-13 -31 -11 -17 5 7 8 17 12 22 9 4 -3 2 -9 -5 -14z m-639 1 c0 -5 -5 -10 -11
-10 -5 0 -7 5 -4 10 3 6 8 10 11 10 2 0 4 -4 4 -10z m1150 0 c0 -5 -7 -10 -16
-10 -8 0 -12 5 -9 10 3 6 10 10 16 10 5 0 9 -4 9 -10z m-1790 -4 c0 -3 -4 -8
-10 -11 -5 -3 -10 -1 -10 4 0 6 5 11 10 11 6 0 10 -2 10 -4z m1127 -18 c-3 -8
-6 -5 -6 6 -1 11 2 17 5 13 3 -3 4 -12 1 -19z m33 7 c0 -8 -4 -15 -10 -15 -5
0 -10 7 -10 15 0 8 5 15 10 15 6 0 10 -7 10 -15z m-443 -10 c0 -9 -10 -15 -25
-15 -21 0 -22 2 -12 15 7 8 18 15 25 15 6 0 12 -7 12 -15z m63 0 c0 -8 -4 -15
-10 -15 -5 0 -10 7 -10 15 0 8 5 15 10 15 6 0 10 -7 10 -15z m1556 -10 c-3 -8
0 -16 7 -18 7 -2 9 -7 5 -11 -3 -4 -15 -2 -26 5 -16 10 -18 17 -11 31 11 21
33 14 25 -7z m-2281 -5 c3 -6 -1 -7 -9 -4 -18 7 -21 14 -7 14 6 0 13 -4 16
-10z m2048 3 c-7 -2 -21 -2 -30 0 -10 3 -4 5 12 5 17 0 24 -2 18 -5z m-1523
-13 c0 -5 -4 -10 -10 -10 -5 0 -10 5 -10 10 0 6 5 10 10 10 6 0 10 -4 10 -10z
m622 -1 c-13 -5 -35 -6 -48 -3 -15 4 -24 2 -24 -6 0 -6 -4 -8 -10 -5 -25 15
-5 25 48 24 46 0 52 -2 34 -10z m528 -9 c0 -5 -2 -10 -4 -10 -3 0 -8 5 -11 10
-3 6 -1 10 4 10 6 0 11 -4 11 -10z m-1093 -17 c-11 -10 -57 -12 -57 -3 0 6 4
9 9 5 5 -3 12 -1 16 4 3 6 12 8 21 4 8 -3 13 -7 11 -10z m471 3 c17 -11 -23
-46 -53 -46 -11 0 -27 -6 -35 -12 -12 -11 -12 -10 -1 5 16 20 1 23 -31 6 -19
-10 -20 -9 -13 7 4 11 8 25 8 32 1 20 74 15 87 -5 10 -16 11 -16 7 3 -5 22 6
26 31 10z m613 -17 c8 0 9 -2 3 -5 -7 -3 -9 -15 -6 -27 5 -22 5 -22 -13 -3
-18 18 -19 18 -26 0 -7 -17 -8 -17 -8 -1 -1 11 -9 17 -27 17 -14 0 -22 4 -19
10 3 5 20 8 38 6 27 -3 29 -2 14 9 -9 6 -14 15 -10 19 3 3 14 -1 23 -9 9 -8
23 -15 31 -16z m607 13 c21 -20 -14 -45 -40 -28 -10 6 -18 15 -18 20 0 6 5 5
12 -2 15 -15 38 -16 38 -2 0 6 -7 10 -15 10 -8 0 -15 5 -15 10 0 13 21 9 38
-8z m-488 -2 c0 -5 -4 -10 -10 -10 -5 0 -10 5 -10 10 0 6 5 10 10 10 6 0 10
-4 10 -10z m-1310 -27 c0 -15 -2 -16 -10 -3 -7 11 -10 11 -10 2 0 -7 -5 -10
-11 -6 -8 4 -7 9 2 15 21 13 29 11 29 -8z m420 -12 c-18 -35 -47 -42 -34 -8 3
9 13 18 22 20 10 3 18 5 20 6 1 0 -2 -8 -8 -18z m1260 -2 c0 -5 -6 -9 -14 -9
-8 0 -17 -3 -19 -7 -3 -5 8 -8 24 -8 21 0 29 5 29 18 0 12 4 16 13 10 6 -4 20
-6 31 -4 11 1 16 -2 12 -8 -4 -6 -12 -11 -17 -11 -5 0 -19 -9 -31 -20 -18 -16
-23 -17 -32 -6 -8 10 -17 11 -31 5 -19 -9 -18 -9 3 -5 24 5 31 -11 7 -20 -8
-3 -22 1 -30 10 -9 9 -12 16 -6 16 6 0 11 7 11 15 0 8 -6 15 -12 15 -9 0 -8 3
2 9 8 6 17 8 21 5 4 -2 10 0 14 6 7 12 25 4 25 -11z m1298 -112 c67 -68 122
-131 122 -141 0 -9 -7 -31 -16 -48 -14 -27 -19 -29 -47 -23 -18 3 -48 9 -67
12 l-35 6 43 -45 c23 -24 42 -52 42 -62 0 -10 -12 -41 -26 -70 -28 -57 -44
-77 -44 -57 0 19 -28 43 -41 35 -8 -4 -9 0 -4 15 5 15 2 21 -9 21 -9 0 -16 6
-16 13 0 8 -4 7 -10 -3 -8 -12 -10 -11 -10 8 0 12 -4 22 -10 22 -5 0 -10 8
-11 18 0 10 -3 12 -6 5 -2 -7 -9 -13 -15 -13 -6 0 -7 7 -4 16 7 18 -19 48 -34
39 -5 -3 -10 3 -10 14 0 11 -9 22 -20 26 -11 3 -20 13 -20 21 0 8 -4 14 -10
14 -17 0 -11 29 20 90 17 33 31 60 33 60 1 0 27 -7 57 -15 66 -18 60 -17 60
-6 0 5 -18 28 -40 51 -22 23 -40 47 -40 52 0 15 30 68 38 68 4 0 63 -55 130
-123z m-3796 91 c-7 -7 -12 -8 -12 -2 0 6 3 14 7 17 3 4 9 5 12 2 2 -3 -1 -11
-7 -17z m273 -3 c-36 -29 -64 -34 -37 -7 9 11 19 18 22 16 3 -1 12 1 20 7 28
17 25 9 -5 -16z m492 -5 c-1 -11 -8 -20 -17 -20 -9 0 -21 -5 -28 -12 -7 -7
-12 -8 -12 -3 0 7 48 53 57 55 1 0 1 -9 0 -20z m86 -4 c9 -7 17 -17 17 -21 0
-4 -7 -1 -16 6 -9 8 -27 12 -40 11 -13 -2 -24 1 -24 7 0 15 41 13 63 -3z m397
-6 c0 -5 -4 -10 -10 -10 -5 0 -10 5 -10 10 0 6 5 10 10 10 6 0 10 -4 10 -10z
m600 6 c0 -2 -8 -10 -17 -17 -16 -13 -17 -12 -4 4 13 16 21 21 21 13z m-680
-50 c8 -3 5 -4 -7 -2 -13 2 -23 1 -23 -3 0 -3 -10 -12 -21 -19 -21 -13 -21
-13 -5 9 14 20 14 24 -2 36 -14 12 -12 11 13 0 17 -8 37 -17 45 -21z m-960 14
c0 -5 -2 -10 -4 -10 -3 0 -8 5 -11 10 -3 6 -1 10 4 10 6 0 11 -4 11 -10z m784
2 c3 -5 -1 -9 -9 -9 -8 0 -15 4 -15 9 0 4 4 8 9 8 6 0 12 -4 15 -8z m-144 -10
c0 -13 -12 -22 -22 -16 -10 6 -1 24 13 24 5 0 9 -4 9 -8z m236 -18 c-10 -9
-28 -14 -48 -12 l-33 4 25 11 c14 7 35 12 48 12 21 1 22 0 8 -15z m-96 -20 c0
-18 -5 -18 -24 2 -14 13 -16 13 -16 1 0 -17 43 -32 48 -17 2 6 8 10 13 10 4 0
6 -7 3 -15 -4 -9 0 -15 7 -15 9 0 7 -5 -4 -11 -13 -8 -22 -8 -29 -1 -6 6 -17
8 -24 5 -8 -3 -14 0 -14 7 0 6 -4 8 -10 5 -5 -3 -8 1 -5 9 3 9 7 22 9 30 6 18
46 9 46 -10z m-300 6 c0 -5 -4 -10 -10 -10 -5 0 -10 5 -10 10 0 6 5 10 10 10
6 0 10 -4 10 -10z m42 -42 c-3 -13 -7 -16 -12 -8 -6 10 -9 9 -12 0 -2 -7 -16
-12 -31 -12 -15 0 -24 -4 -21 -9 3 -5 0 -9 -5 -9 -15 0 -14 12 3 36 9 13 26
20 49 21 30 0 34 -2 29 -19z m-103 -5 c-22 -27 -49 -53 -54 -53 -3 0 7 16 22
35 15 19 32 35 37 35 5 0 2 -8 -5 -17z m1095 -23 c5 0 3 7 -4 15 -10 12 -10
15 0 15 12 0 28 -41 19 -49 -2 -3 -29 -6 -59 -9 -30 -2 -52 0 -48 4 4 4 21 7
38 6 34 -1 36 3 15 24 -11 11 -15 12 -15 3 0 -7 -3 -10 -6 -6 -4 3 -4 14 0 23
6 15 9 15 29 -5 13 -11 27 -21 31 -21z m172 14 c-4 -10 -2 -14 6 -11 7 2 12
10 11 16 -2 6 1 11 6 11 6 0 9 -8 8 -19 -1 -12 -8 -18 -22 -16 -11 0 -26 -3
-32 -8 -9 -7 -13 -4 -13 7 0 10 5 14 10 11 6 -3 13 1 16 9 3 9 8 16 11 16 3 0
2 -7 -1 -16z m-1059 -20 c-3 -3 -12 -4 -19 -1 -8 3 -5 6 6 6 11 1 17 -2 13 -5z
m62 -35 c11 0 12 -2 3 -6 -15 -6 -52 24 -51 41 0 6 7 1 16 -11 8 -13 23 -23
32 -24z m1351 16 c-7 -8 -18 -15 -24 -15 -6 0 -2 7 8 15 25 19 32 19 16 0z
m-1305 -5 c-3 -5 -11 -10 -16 -10 -6 0 -7 5 -4 10 3 6 11 10 16 10 6 0 7 -4 4
-10z m675 6 c0 -3 -4 -8 -10 -11 -5 -3 -10 -1 -10 4 0 6 5 11 10 11 6 0 10 -2
10 -4z m478 -3 c-10 -2 -18 -11 -18 -19 0 -8 -4 -14 -10 -14 -5 0 -10 -7 -10
-16 0 -12 -6 -15 -23 -11 -12 4 -29 2 -37 -3 -11 -7 -6 -10 19 -10 47 0 35 -8
-18 -11 -29 -2 -46 1 -49 9 -2 6 3 12 10 12 8 0 14 10 15 21 2 19 1 20 -10 5
-12 -16 -13 -15 -13 4 0 19 4 21 33 15 26 -5 33 -3 33 10 0 11 11 15 48 14 26
-1 39 -3 30 -6z m-1290 -14 c1 -1 6 -2 12 -3 5 0 14 -6 21 -13 6 -6 19 -9 28
-6 14 4 14 3 1 -6 -17 -12 -55 -5 -88 16 -12 7 -28 11 -34 7 -6 -4 -8 -3 -4 4
5 8 53 10 64 1z m1123 -12 c-1 -4 -3 -7 -6 -7 -3 0 -15 0 -27 1 -22 0 -22 1
-3 9 22 9 37 8 36 -3z m-345 -19 c4 -13 12 -26 18 -30 8 -6 8 -8 -1 -8 -7 0
-16 7 -20 15 -6 10 -13 11 -23 5 -11 -7 -11 -10 -2 -10 8 0 6 -8 -7 -22 -11
-11 -18 -25 -14 -31 3 -5 -5 -4 -17 3 -12 6 -24 9 -28 6 -3 -3 1 -6 8 -6 9 0
5 -8 -9 -22 -20 -18 -27 -19 -43 -9 -10 6 -23 9 -28 6 -6 -4 -10 1 -10 9 0 22
17 28 33 11 20 -20 24 -19 37 6 9 17 8 23 -7 35 -17 12 -17 13 0 14 9 0 17 -4
17 -10 0 -22 26 -8 49 25 28 41 37 43 47 13z m594 9 c-28 -15 -75 -29 -66 -20
13 14 52 31 71 32 17 1 16 -1 -5 -12z m-1436 -19 c-5 -7 -1 -9 13 -6 12 3 20
0 20 -8 0 -8 -4 -14 -8 -14 -5 0 -6 -6 -3 -14 3 -9 -3 -17 -15 -21 -12 -3 -21
-10 -21 -15 0 -12 -28 -20 -45 -14 -22 9 -18 23 5 17 11 -3 27 0 35 7 12 10
13 16 3 28 -11 13 -11 14 1 7 11 -6 13 -4 8 9 -7 17 -2 36 9 36 3 0 2 -5 -2
-12z m771 2 c-3 -5 -11 -10 -16 -10 -6 0 -7 5 -4 10 3 6 11 10 16 10 6 0 7 -4
4 -10z m-685 -10 c0 -5 -5 -10 -11 -10 -5 0 -7 5 -4 10 3 6 8 10 11 10 2 0 4
-4 4 -10z m1104 1 c3 -5 -1 -11 -9 -15 -9 -3 -15 0 -15 9 0 16 16 20 24 6z
m-1407 -27 c1 -24 0 -25 -15 -10 -15 15 -15 18 -2 26 8 5 15 10 15 10 0 0 1
-12 2 -26z m1219 3 c4 -4 0 -7 -9 -7 -9 0 -18 4 -21 9 -7 10 20 9 30 -2z
m-289 -13 c-3 -3 -12 -4 -19 -1 -8 3 -5 6 6 6 11 1 17 -2 13 -5z m333 -4 c0
-5 -4 -10 -10 -10 -5 0 -10 5 -10 10 0 6 5 10 10 10 6 0 10 -4 10 -10z m225 0
c4 -6 -5 -10 -19 -10 -14 0 -26 5 -26 10 0 6 9 10 19 10 11 0 23 -4 26 -10z
m-421 -36 c-19 -15 -19 -15 3 -11 14 3 24 -1 28 -11 5 -14 7 -14 15 -2 7 10
10 11 10 3 0 -7 7 -13 15 -13 8 0 15 4 15 9 0 11 39 21 100 27 32 3 41 1 30
-6 -8 -5 -32 -9 -53 -8 -43 2 -61 -10 -29 -19 21 -5 21 -6 5 -18 -10 -7 -22
-10 -28 -7 -5 3 -42 5 -81 4 -65 -3 -72 -1 -77 18 -3 13 0 20 9 20 8 0 17 7
20 15 4 8 13 15 22 15 13 0 12 -3 -4 -16z m251 6 c-3 -6 4 -10 17 -10 21 -1
22 -1 4 -11 -14 -9 -20 -8 -27 2 -7 12 -3 29 7 29 3 0 2 -4 -1 -10z m77 -2
c-4 -4 -21 -3 -37 1 -30 9 -30 9 7 8 20 -1 34 -5 30 -9z m1618 -81 c0 -6 -14
-32 -30 -59 -20 -31 -29 -57 -25 -69 10 -29 28 -23 49 16 22 40 31 40 60 2
l20 -28 -23 -43 c-23 -42 -23 -76 -1 -76 6 0 25 23 42 50 17 28 34 50 38 50 7
0 40 -66 40 -81 0 -6 -15 -34 -34 -62 -18 -29 -50 -78 -70 -109 -33 -54 -63
-79 -49 -41 4 11 3 14 -5 9 -7 -4 -12 -1 -12 9 0 11 -5 15 -14 12 -9 -4 -12 0
-9 13 5 17 -11 34 -32 35 -5 1 -9 7 -7 13 3 18 -25 45 -38 37 -7 -4 -8 3 -4
21 5 19 4 25 -5 20 -6 -4 -11 -3 -11 3 0 6 -7 8 -16 4 -13 -5 -15 -2 -10 14 6
18 -14 38 -34 35 -3 0 -6 16 -7 35 -2 34 18 72 117 230 l14 22 28 -26 c16 -15
28 -31 28 -36z m-2190 43 c0 -5 -5 -10 -11 -10 -5 0 -7 5 -4 10 3 6 8 10 11
10 2 0 4 -4 4 -10z m1743 -23 c-3 -5 -10 -4 -15 1 -6 6 -7 16 -3 22 6 9 9 9
16 -1 4 -7 5 -17 2 -22z m-1683 4 c0 -6 -4 -13 -10 -16 -5 -3 -10 1 -10 9 0 9
5 16 10 16 6 0 10 -4 10 -9z m73 -12 c-8 -8 -16 -8 -30 0 -16 9 -14 10 12 11
21 0 26 -3 18 -11z m57 5 c0 -3 -7 -12 -15 -20 -13 -14 -15 -13 -15 5 0 12 6
21 15 21 8 0 15 -3 15 -6z m-163 -29 c-4 -10 -20 -15 -47 -15 -22 0 -40 -4
-40 -10 0 -5 -9 -9 -20 -7 -22 4 -40 17 -22 17 7 0 12 8 13 18 0 10 3 12 6 4
2 -6 9 -10 14 -7 11 7 93 23 98 19 2 -2 1 -10 -2 -19z m1641 -17 c-3 -7 -13
-15 -24 -17 -16 -3 -17 -1 -5 13 16 19 34 21 29 4z m-35 -43 c4 -8 1 -17 -5
-21 -7 -4 -8 -3 -4 4 4 7 2 12 -3 12 -6 0 -11 5 -11 10 0 15 17 12 23 -5z
m-31 -55 c-12 -11 -24 -20 -28 -20 -4 0 1 9 11 20 10 11 23 20 28 20 6 0 1 -9
-11 -20z m-61 -20 c15 8 19 7 19 -5 0 -9 -9 -15 -24 -15 -26 0 -40 12 -28 24
3 4 8 3 10 -3 3 -8 10 -8 23 -1z m-51 -40 c12 -8 11 -10 -7 -10 -13 0 -23 5
-23 10 0 13 11 13 30 0z m-37 -32 c2 -7 -2 -26 -10 -41 -8 -15 -11 -32 -8 -38
4 -6 -3 -7 -19 -3 -15 3 -33 0 -46 -9 l-21 -14 21 -6 c11 -3 20 -10 20 -16 0
-9 -5 -9 -20 -1 -21 11 -29 -3 -10 -15 15 -9 -8 -36 -29 -34 -38 3 -51 -2 -51
-20 0 -28 -19 -36 -35 -15 -19 25 -18 34 3 35 10 0 12 3 4 6 -18 7 -4 23 16
17 14 -5 15 -4 2 5 -13 9 -13 12 -1 20 7 5 11 14 7 19 -9 14 28 34 48 26 9 -3
23 -3 32 0 13 5 14 9 5 20 -10 12 -9 14 6 10 22 -6 66 33 59 52 -3 8 1 14 8
14 8 0 16 -6 19 -12z m-43 -8 c0 -5 -7 -10 -16 -10 -9 0 -12 -5 -8 -12 5 -7 3
-8 -6 -3 -10 6 -9 11 5 22 22 16 25 16 25 3z m85 -18 c-8 -8 -25 10 -19 20 4
6 9 5 15 -3 4 -7 6 -15 4 -17z m554 -157 c50 -80 91 -152 91 -160 0 -17 -39
-75 -51 -75 -4 0 -21 23 -38 50 -33 53 -42 58 -61 35 -9 -11 -5 -26 25 -74
l37 -60 -53 -67 -54 -68 -9 33 c-6 21 -14 30 -23 27 -10 -4 -13 -1 -9 12 8 24
-9 46 -28 39 -14 -5 -15 -3 -6 13 13 24 13 33 0 25 -5 -3 -10 1 -10 10 0 11
-5 15 -16 11 -8 -3 -12 -2 -9 4 10 16 -5 50 -21 50 -10 0 -13 6 -10 18 7 23
-8 47 -24 37 -10 -6 -12 -2 -8 13 4 12 2 22 -4 22 -6 0 -8 7 -5 15 9 23 80
115 89 115 5 0 22 -22 39 -50 33 -54 40 -58 59 -35 11 13 6 26 -24 75 -21 34
-34 65 -30 72 12 21 47 58 55 58 4 0 48 -65 98 -145z m-584 125 c-3 -5 -11
-10 -16 -10 -6 0 -7 5 -4 10 3 6 11 10 16 10 6 0 7 -4 4 -10z m-288 -106 c-3
-3 -12 -4 -19 -1 -8 3 -5 6 6 6 11 1 17 -2 13 -5z m-51 -28 c8 -8 14 -19 14
-24 0 -6 7 -12 15 -16 11 -4 13 -11 6 -29 -7 -18 -6 -24 4 -24 8 0 12 4 9 8
-2 4 0 10 6 14 6 4 8 11 5 16 -4 5 1 9 10 9 9 0 14 4 11 9 -4 5 3 7 14 4 16
-4 18 -8 9 -19 -9 -11 -8 -14 1 -14 7 0 -2 -15 -19 -32 -25 -25 -34 -30 -40
-19 -6 9 -11 10 -15 2 -4 -6 -2 -11 4 -11 6 0 3 -11 -7 -25 -12 -16 -26 -24
-43 -22 -19 1 -25 -3 -23 -16 0 -12 -4 -16 -13 -13 -8 3 -14 1 -14 -4 0 -6 -7
-10 -15 -10 -9 0 -12 -6 -8 -16 4 -11 1 -15 -13 -12 -14 2 -18 -2 -16 -15 3
-15 -2 -16 -25 -11 -26 7 -27 6 -14 -10 14 -17 13 -17 -20 -11 -18 3 -40 7
-46 7 -7 1 -13 6 -13 12 0 6 -4 5 -9 -2 -5 -8 -20 -15 -34 -15 -14 -1 -23 -5
-21 -8 2 -4 -3 -12 -11 -19 -8 -7 -15 -20 -15 -29 1 -14 2 -14 15 2 13 18 14
18 25 -3 9 -16 9 -25 1 -33 -7 -7 -11 -7 -11 -1 0 6 -13 9 -31 6 -19 -3 -28
-9 -25 -17 7 -18 -40 -59 -59 -51 -10 3 -14 2 -10 -5 4 -6 -1 -17 -11 -24 -24
-18 -40 -19 -26 -2 8 9 3 12 -19 11 -36 -1 -52 -14 -18 -14 l24 -1 -27 -22
c-24 -19 -36 -22 -80 -17 -53 5 -53 5 -53 40 0 20 -5 35 -12 36 -7 1 -14 2
-15 4 -8 6 -71 4 -75 -2 -2 -5 3 -8 11 -8 16 0 16 -3 19 -102 1 -30 24 -38 33
-13 4 8 12 15 19 15 7 0 15 5 17 12 3 7 14 9 34 3 l29 -8 -25 -7 c-14 -4 -38
-15 -55 -24 -38 -20 -69 -21 -62 -1 4 8 2 17 -4 21 -7 4 -6 10 1 19 14 17 -13
27 -42 15 -13 -5 -17 -9 -10 -9 7 -1 11 -5 7 -10 -3 -5 3 -12 13 -15 18 -6 27
-36 10 -36 -4 0 -8 7 -8 15 0 14 -11 19 -37 16 -7 -1 -13 7 -13 17 0 23 -8 32
-24 26 -20 -8 -11 -55 13 -68 21 -12 21 -12 -13 -28 -19 -9 -37 -14 -40 -10
-4 3 -18 7 -31 8 -17 0 -22 -3 -17 -14 4 -12 0 -14 -21 -8 -14 3 -29 2 -32 -4
-11 -18 -53 -11 -60 10 -7 22 -57 29 -52 8 2 -12 -34 -14 -125 -8 -21 1 -23
11 -6 28 9 9 8 12 -5 12 -9 0 -17 -4 -17 -10 0 -5 -4 -10 -10 -10 -5 0 -6 8
-3 17 5 12 2 15 -10 10 -15 -6 -17 3 -17 67 0 53 -4 77 -15 86 -9 7 -15 8 -15
2 0 -6 -11 -9 -25 -7 -14 1 -28 -2 -31 -6 -3 -5 4 -9 15 -9 29 0 24 -64 -7
-68 -21 -3 -48 29 -35 42 4 4 8 15 10 26 2 14 -2 18 -17 15 -14 -3 -20 2 -20
16 0 13 7 19 23 20 12 0 30 2 40 4 9 2 17 -1 17 -5 0 -13 53 -5 58 9 2 6 -4
11 -14 11 -9 0 -14 3 -11 6 7 8 220 7 252 0 11 -2 39 -5 63 -5 41 -1 42 -2 42
-37 0 -35 1 -35 37 -32 32 3 36 6 38 31 1 32 -3 36 -39 39 -25 2 -29 9 -29 49
0 13 -9 15 -51 11 -37 -3 -48 -1 -41 7 17 17 256 34 266 18 8 -12 39 -2 39 13
0 5 -10 10 -22 10 -15 1 -5 8 27 20 58 23 103 27 88 8 -15 -18 -12 -48 4 -48
7 0 13 6 14 13 0 6 4 3 9 -8 10 -27 86 -36 76 -9 -3 9 -1 23 6 32 11 13 7 14
-36 10 -27 -3 -43 -2 -36 2 9 6 8 11 -6 20 -18 11 -18 11 -1 6 10 -3 37 -9 59
-12 34 -6 39 -10 34 -27 -7 -27 10 -47 41 -47 21 0 23 4 21 34 -2 29 -6 35
-31 40 -20 4 -27 10 -24 20 3 8 1 17 -6 20 -7 3 1 2 17 -1 23 -5 28 -3 24 8
-4 10 2 15 19 17 13 1 33 7 45 13 15 8 19 8 14 0 -4 -6 -3 -11 3 -11 5 0 13 5
16 10 3 6 19 10 34 10 16 0 42 7 57 16 28 15 28 15 4 11 -94 -18 -95 -18 -43
2 29 10 72 19 95 18 33 -1 43 3 42 14 -1 11 7 14 27 11 22 -3 29 0 29 12 0 9
5 16 11 16 6 0 20 10 31 23 13 15 21 18 24 10 3 -7 10 -13 15 -13 6 0 7 5 4
10 -6 10 1 30 11 30 3 0 12 -6 20 -14z m598 -191 c22 -33 21 -35 -21 -84 l-36
-43 38 -79 c22 -43 44 -79 50 -79 6 0 24 14 40 30 16 17 32 30 35 30 4 0 12
-19 19 -41 l13 -42 -69 -69 c-63 -65 -115 -106 -99 -79 4 6 0 11 -8 11 -9 0
-16 5 -16 10 0 7 -7 7 -21 0 -19 -11 -20 -10 -8 11 8 16 9 24 1 27 -6 2 -8 10
-5 18 3 10 0 12 -10 8 -12 -4 -14 -1 -10 17 5 16 3 20 -6 14 -10 -6 -11 -2 -6
16 7 21 6 22 -9 10 -9 -8 -16 -9 -16 -3 0 6 4 14 10 17 15 9 -11 44 -28 37
-12 -4 -12 -1 -3 16 7 14 8 22 2 22 -6 0 -8 7 -5 15 4 10 0 15 -11 15 -17 0
-17 1 -1 19 9 10 14 25 11 33 -6 16 121 167 141 168 7 0 19 -11 28 -25z
m-1114 -19 c0 -3 -4 -8 -10 -11 -5 -3 -10 -1 -10 4 0 6 5 11 10 11 6 0 10 -2
10 -4z m64 -71 c3 -8 1 -15 -4 -15 -6 0 -10 7 -10 15 0 8 2 15 4 15 2 0 6 -7
10 -15z m256 -35 c0 -6 -6 -10 -14 -10 -7 0 -19 -7 -26 -15 -15 -18 -36 -5
-28 17 6 15 68 22 68 8z m-1447 -20 c-3 -11 -9 -20 -14 -20 -10 0 -12 24 -2
33 13 13 21 7 16 -13z m82 11 c-20 -5 -29 -12 -27 -23 1 -9 -2 -19 -8 -23 -6
-4 -10 6 -10 24 0 29 2 31 38 30 36 -1 36 -2 7 -8z m68 2 c-7 -2 -19 -2 -25 0
-7 3 -2 5 12 5 14 0 19 -2 13 -5z m75 0 c-10 -2 -18 -14 -18 -26 0 -20 0 -20
15 -1 12 14 14 15 9 2 -4 -12 1 -18 18 -21 13 -2 7 -3 -12 -3 -29 2 -36 6 -39
26 l-4 25 -7 -25 -6 -25 -6 28 c-5 26 -3 27 31 26 20 -1 28 -3 19 -6z m275 0
c-29 -2 -78 -2 -110 0 -32 2 -8 3 52 3 61 0 87 -1 58 -3z m37 -25 c0 -5 -16
-8 -36 -8 -19 0 -33 4 -30 9 7 11 66 9 66 -1z m66 3 c-5 -8 -56 -3 -56 5 0 2
14 4 31 4 16 0 28 -4 25 -9z m-411 -40 c3 -5 1 -12 -5 -16 -5 -3 -10 1 -10 9
0 18 6 21 15 7z m-119 -48 c34 -40 30 -48 -6 -13 -16 16 -30 32 -30 35 0 12
14 3 36 -22z m71 11 c2 -7 -8 -9 -27 -6 -16 2 -27 8 -24 14 8 12 46 6 51 -8z
m53 -9 c0 -8 9 -15 20 -15 13 0 20 -7 20 -20 0 -24 -8 -25 -39 -3 -14 9 -21
11 -17 5 5 -8 0 -12 -13 -12 -25 0 -27 22 -5 44 20 20 34 20 34 1z m1810 -35
c10 -25 37 -98 61 -163 46 -127 46 -134 -3 -170 l-26 -19 -48 36 c-26 20 -49
34 -52 32 -2 -3 3 -26 12 -52 23 -68 21 -78 -26 -116 -52 -42 -100 -70 -81
-47 17 20 6 59 -14 52 -13 -5 -13 -3 -4 15 7 14 8 22 2 22 -6 0 -8 7 -4 16 5
13 2 15 -18 9 -24 -8 -24 -8 -5 14 11 11 14 21 8 21 -6 0 -9 7 -6 15 4 10 0
15 -12 15 -14 0 -15 3 -6 12 15 15 16 32 2 23 -5 -3 -10 1 -10 10 0 9 -4 14
-9 11 -5 -4 -8 9 -7 28 3 29 0 33 -17 28 -16 -4 -18 -2 -9 14 5 10 8 24 5 30
-4 13 91 104 109 104 7 -1 29 -14 48 -30 53 -46 62 -39 37 30 l-22 60 30 25
c17 13 34 23 38 22 5 -1 17 -23 27 -47z m-1739 -56 c12 -15 11 -16 -8 -10 -13
4 -27 1 -37 -9 -14 -14 -18 -14 -42 2 -18 11 -22 19 -13 22 7 2 15 -1 17 -7 5
-16 21 -15 38 3 20 19 28 19 45 -1z m724 -4 c3 -6 -1 -7 -9 -4 -18 7 -21 14
-7 14 6 0 13 -4 16 -10z m724 -319 c22 -93 41 -175 41 -182 0 -8 -16 -25 -36
-38 -41 -29 -46 -25 -65 51 -11 48 -27 60 -47 35 -8 -10 -7 -26 3 -62 8 -26
15 -58 15 -69 -1 -21 -40 -51 -118 -91 -36 -18 -52 -16 -28 4 15 12 10 51 -6
51 -5 0 -6 6 -1 13 4 6 8 21 8 33 1 16 -4 20 -20 16 -17 -5 -18 -3 -8 9 17 21
6 59 -15 52 -12 -4 -12 -1 3 10 17 14 18 18 5 27 -8 5 -11 10 -6 10 5 0 4 6
-1 13 -5 6 -9 24 -8 38 1 19 -3 25 -13 22 -10 -4 -11 1 -6 23 4 16 11 34 16
41 13 16 108 77 113 72 2 -2 10 -29 17 -59 11 -43 18 -55 34 -55 23 0 30 34
16 73 -26 67 -24 78 16 105 20 14 40 26 43 26 4 1 25 -75 48 -168z m-441 -13
c3 -28 -20 -53 -43 -44 -21 8 -19 53 3 65 24 15 37 8 40 -21z m-88 -36 c0 -30
-16 -52 -37 -52 -17 0 -17 67 0 73 27 12 37 6 37 -21z m169 -200 c28 -85 51
-158 51 -163 0 -5 -19 -18 -42 -28 -41 -17 -43 -17 -58 2 -14 16 -20 18 -38 8
-11 -6 -22 -23 -24 -38 -2 -24 -15 -34 -77 -66 -74 -37 -91 -40 -75 -15 13 21
15 48 3 48 -8 0 -7 5 2 16 19 23 19 54 0 54 -15 1 -15 2 0 13 20 16 30 55 15
61 -7 3 -5 10 7 19 13 11 15 17 7 22 -9 6 -9 10 1 16 11 7 9 9 -5 9 -17 0 -18
2 -4 18 8 9 13 28 12 42 -1 14 3 30 8 37 5 7 7 16 4 21 -7 12 146 94 155 84 4
-4 30 -76 58 -160z m-389 -121 c0 -65 3 -145 6 -179 l7 -61 -34 -20 c-58 -36
-69 -30 -69 38 0 62 -7 75 -34 65 -13 -5 -16 -22 -16 -78 l0 -73 -77 -26 c-88
-31 -97 -32 -86 -14 12 20 14 47 2 47 -8 0 -7 5 2 16 18 21 19 54 2 54 -9 0
-11 5 -6 13 15 24 13 47 -5 47 -11 1 -7 6 13 17 24 14 26 18 12 21 -9 2 -14 8
-11 14 4 6 0 14 -7 19 -10 6 -11 9 -1 9 20 0 15 50 -5 51 -17 1 -17 2 0 6 12
3 16 11 12 22 -4 14 8 23 57 44 95 40 98 39 98 -38 0 -67 4 -74 33 -52 12 9
17 31 19 81 3 69 3 69 38 82 19 7 38 13 43 13 4 1 7 -52 7 -118z m-386 -50
c15 -17 16 -30 6 -127 -15 -159 -17 -167 -48 -200 -23 -25 -46 -35 -138 -57
-61 -15 -119 -27 -129 -27 -17 0 -18 1 -2 13 9 6 18 23 19 37 2 14 10 30 18
37 12 10 12 12 1 13 -7 0 -11 6 -7 15 3 10 -1 15 -11 15 -15 0 -15 1 -1 13 9
6 19 22 22 34 6 18 4 21 -16 16 l-23 -5 22 16 c18 13 21 21 13 40 -7 18 -5 26
6 30 22 8 17 33 -8 40 l-23 7 23 9 c12 5 22 16 22 24 0 17 11 21 115 51 101
29 118 29 139 6z m-467 -118 c-4 -21 -16 -81 -27 -133 -11 -52 -20 -97 -20
-99 0 -2 25 -1 56 1 l56 5 -6 -35 c-3 -20 -9 -39 -14 -44 -17 -17 -269 -51
-278 -37 -3 5 2 9 10 9 9 0 16 2 16 4 0 2 3 11 6 20 5 12 0 16 -17 16 l-24 0
21 18 c26 21 38 52 21 52 -7 1 -1 7 13 15 14 8 19 14 11 15 -7 0 -11 6 -7 15
4 10 -1 15 -17 16 -20 1 -20 1 4 10 29 11 45 49 26 61 -9 6 -9 8 2 8 7 0 11 6
8 15 -4 8 -1 17 5 21 7 4 6 9 -3 15 -11 7 -10 9 5 9 12 0 16 5 12 15 -4 10 6
17 37 25 23 6 47 13 52 15 6 2 21 4 34 4 22 1 23 -2 18 -36z m-676 -18 l66 -6
-7 -37 -6 -37 -66 2 c-66 2 -66 2 -77 -29 -14 -40 -14 -46 2 -24 10 14 21 16
65 10 29 -3 52 -10 52 -14 0 -8 -21 -61 -51 -127 -10 -23 -33 -51 -50 -63 -28
-21 -37 -22 -135 -15 -57 4 -107 11 -110 16 -3 5 3 9 13 9 14 0 15 2 4 9 -7 5
-10 14 -7 20 4 6 0 11 -8 11 -24 0 -19 15 9 30 27 14 33 30 13 30 -9 1 -8 4 2
13 8 7 17 23 18 37 2 13 11 30 20 36 14 10 15 15 5 25 -18 18 -16 29 6 29 17
0 36 25 33 43 -1 4 4 7 12 7 7 0 19 6 26 14 12 16 51 24 85 20 11 -2 50 -6 86
-9z m422 -6 c16 -23 14 -38 -38 -202 -39 -124 -57 -137 -193 -137 -86 0 -100
2 -96 15 4 10 0 15 -11 15 -9 0 -13 5 -9 11 3 6 0 15 -7 20 -10 6 -8 9 10 9
16 0 21 4 18 14 -3 8 -1 17 6 20 7 2 2 5 -10 5 -28 1 -30 17 -4 24 21 5 42 64
36 97 -3 13 5 22 23 29 15 5 21 10 13 10 -11 1 -11 4 -1 16 10 13 9 15 -11 16
-19 1 -16 3 11 11 19 5 38 14 41 19 10 17 61 27 136 28 62 1 74 -2 86 -20z"/>
<path d="M8142 5613 c2 -12 12 -18 28 -18 36 0 33 29 -3 33 -23 3 -28 0 -25
-15z"/>
<path d="M7514 5030 c0 -13 4 -16 10 -10 7 7 7 13 0 20 -6 6 -10 3 -10 -10z"/>
<path d="M7644 3712 c-10 -7 -26 -52 -18 -52 2 0 10 14 19 30 16 32 16 34 -1
22z"/>
<path d="M5218 3173 c6 -2 18 -2 25 0 6 3 1 5 -13 5 -14 0 -19 -2 -12 -5z"/>
<path d="M4676 2943 c-6 -14 -5 -15 5 -6 7 7 10 15 7 18 -3 3 -9 -2 -12 -12z"/>
<path d="M6365 2530 c3 -4 0 -10 -6 -12 -7 -2 -4 -10 7 -18 16 -14 17 -13 11
3 -4 11 -2 17 8 17 23 0 18 16 -5 17 -11 1 -18 -2 -15 -7z"/>
<path d="M6730 1859 c0 -6 -7 -8 -17 -5 -13 5 -11 0 6 -18 13 -14 28 -23 32
-20 13 7 11 14 -2 12 -6 -2 -14 3 -16 10 -3 8 1 10 11 6 12 -5 15 -2 10 10 -7
18 -24 22 -24 5z"/>
<path d="M6657 1823 c-3 -5 1 -14 9 -20 8 -8 15 -9 19 -3 3 6 1 10 -5 10 -6 0
-8 5 -5 10 3 6 2 10 -4 10 -5 0 -12 -3 -14 -7z"/>
<path d="M6543 1765 c-7 -21 -2 -25 25 -18 18 4 20 8 11 19 -15 18 -28 18 -36
-1z"/>
<path d="M6694 1725 c-2 -21 1 -22 17 -12 10 6 17 12 16 12 -1 0 -9 6 -17 12
-12 9 -15 7 -16 -12z"/>
<path d="M6140 1673 c-8 -2 -22 -7 -30 -9 -12 -4 -12 -6 -1 -14 17 -10 38 -3
45 16 3 8 4 14 3 13 -1 0 -9 -3 -17 -6z"/>
<path d="M6382 1643 c2 -21 6 -37 11 -35 4 1 26 2 50 2 41 0 42 1 41 32 -1 32
-2 33 -53 36 l-52 3 3 -38z"/>
<path d="M6596 1672 c-3 -5 1 -9 9 -9 8 0 12 4 9 9 -3 4 -7 8 -9 8 -2 0 -6 -4
-9 -8z"/>
<path d="M6155 1640 c-3 -5 -15 -10 -26 -10 -10 0 -19 -4 -19 -10 0 -5 16 -10
36 -10 29 0 34 3 25 13 -6 8 -8 17 -4 20 3 4 4 7 0 7 -3 0 -9 -4 -12 -10z"/>
<path d="M5985 1619 c-11 -17 1 -21 15 -4 8 9 8 15 2 15 -6 0 -14 -5 -17 -11z"/>
<path d="M6275 1420 c-3 -5 -2 -10 4 -10 5 0 13 5 16 10 3 6 2 10 -4 10 -5 0
-13 -4 -16 -10z"/>
<path d="M5873 1327 c-2 -4 11 -7 31 -5 20 1 36 5 36 9 0 9 -61 6 -67 -4z"/>
<path d="M6405 838 c-2 -7 -6 -35 -8 -62 l-5 -48 31 6 c49 10 53 20 26 71 -24
46 -37 55 -44 33z"/>
<path d="M5633 558 c-6 -7 -14 -53 -18 -101 -7 -84 -6 -89 11 -85 16 3 20 17
27 92 9 88 2 121 -20 94z"/>
<path d="M4460 291 c-14 -27 -13 -31 10 -31 11 0 20 4 20 9 0 5 3 16 6 25 9
23 -23 20 -36 -3z"/>
<path d="M4871 363 c-13 -43 -26 -84 -28 -90 -3 -8 3 -13 15 -13 16 0 25 16
46 84 31 100 31 96 8 96 -14 0 -24 -18 -41 -77z"/>
<path d="M6535 4060 c3 -5 8 -10 11 -10 2 0 4 5 4 10 0 6 -5 10 -11 10 -5 0
-7 -4 -4 -10z"/>
<path d="M6540 3951 c0 -5 -8 -12 -17 -14 -15 -4 -15 -5 -2 -6 9 0 22 6 29 14
9 10 9 15 1 15 -6 0 -11 -4 -11 -9z"/>
<path d="M5640 3860 c0 -5 7 -10 15 -10 8 0 15 5 15 10 0 6 -7 10 -15 10 -8 0
-15 -4 -15 -10z"/>
</g>
</svg>
